<svg xmlns="http://www.w3.org/2000/svg"
     data-name="Layer 1" viewBox="0 0 100 125" x="0px" y="0px">
  <path d="M74.46,86q-.44,0-.87,0c-7.3-.6-13-8.67-16.57-15.33-2.26-4.26-4.19-10.54-6.25-17.18-4.55-14.72-10.21-33-22-36.79C19.51,13.68,13,24.2,8.4,33.69A139.25,139.25,0,0,0,2,50.21a1,1,0,0,1-2-.66A140.86,140.86,0,0,1,6.55,32.79c3.2-6.58,10.71-22,22.84-18.14C42.22,18.72,47.81,36.82,52.74,52.8c2,6.55,3.93,12.74,6.1,16.83,3.29,6.21,8.54,13.72,14.92,14.24,3.18.26,6.42-1.29,9.65-4.61,7-7.25,10.72-18.21,13.68-27,.28-.84.58-1.77.9-2.77a1,1,0,1,1,2,.62c-.32,1-.62,1.95-.91,2.8-2.87,8.53-6.8,20.22-14.16,27.8C81.49,84.19,78,86,74.46,86Z"/>
</svg>
